<svg width="1207" height="337" viewBox="0 0 1207 337" fill="none" xmlns="http://www.w3.org/2000/svg">
<path fill-rule="evenodd" clip-rule="evenodd" d="M1029.41 0.308261C1031.88 0.337415 1035.15 0.355311 1039.29 0.355311C1091.73 0.355416 1111.2 20.9617 1120.9 31.398V15.6824C1120.9 11.0948 1124.62 7.37554 1129.21 7.37554H1198.67C1203.26 7.37559 1206.98 11.0948 1206.98 15.6824V319.782C1206.98 324.37 1203.26 328.089 1198.67 328.089H1129.21C1124.62 328.089 1120.9 324.37 1120.9 319.782V304.693C1113.37 312.948 1099.74 327.303 1069.44 333.298C1060.62 334.914 1051.56 335.843 1042.31 336.023C1041.21 336.042 1040.1 336.053 1038.97 336.053C1038.73 336.053 1038.5 336.053 1038.27 336.054C945.804 335.673 870.965 260.6 870.964 168.047C870.965 78.4703 941.069 5.26736 1029.41 0.308261ZM1038.97 86.1159C993.723 86.1161 957.041 122.798 957.041 168.047C957.041 213.297 993.723 249.98 1038.97 249.98C1084.22 249.98 1120.9 213.297 1120.9 168.047C1120.9 122.798 1084.22 86.1159 1038.97 86.1159Z" fill="#2E55CD"/>
<path fill-rule="evenodd" clip-rule="evenodd" d="M521.241 0C614.029 0 689.25 75.2196 689.25 168.008C689.25 260.796 614.029 336.016 521.241 336.016C453.327 336.016 394.827 295.718 368.341 237.731C368.252 237.4 368.138 237.071 367.995 236.746C360.334 219.247 360.334 208.164 360.334 208.164C360.334 208.164 354.33 226.566 335.222 248.281C333.117 250.496 331.048 252.665 329.018 254.774C315.099 269.236 301.096 283.152 290.733 291.225C254.464 319.477 215.541 336.016 168.008 336.016C75.2196 336.016 0 260.796 0 168.008C0.000143856 75.2197 75.2197 0.000133066 168.008 0C213.587 0 254.973 18.1988 285.199 47.6222C288.487 50.8223 288.285 56.0952 284.927 59.2209L234.081 106.547C230.723 109.673 225.492 109.448 222.046 106.42C207.593 93.7181 188.718 86.0761 168.008 86.0761C122.758 86.0762 86.0762 122.758 86.0761 168.008C86.0761 213.257 122.758 249.94 168.008 249.94C192.734 249.94 213.536 242.25 237.838 223.319C242.618 219.596 252.566 210.081 267 195.084C280.763 180.783 296.827 163.387 313.147 145.497C344.95 110.639 379.095 72.3532 395.167 56.2811C396.253 55.1949 397.382 54.1784 398.55 53.2326C429.208 20.4734 472.834 5.47659e-05 521.241 0ZM521.241 86.0761C475.992 86.0762 439.31 122.758 439.31 168.008C439.31 213.257 475.992 249.94 521.241 249.94C566.491 249.94 603.173 213.257 603.173 168.008C603.173 122.758 566.491 86.0761 521.241 86.0761Z" fill="#2E55CD"/>
<path d="M869.034 7.97259C873.621 7.97259 877.341 11.6917 877.341 16.2794V85.7419C877.341 90.3296 873.621 94.0487 869.034 94.0487H809.638C793.68 93.8581 789.978 88.4676 789.978 88.4676C789.978 88.4676 793.815 94.0548 793.815 106.304V320.379C793.815 324.967 790.096 328.686 785.508 328.686H716.046C711.458 328.686 707.739 324.967 707.739 320.379V51.0106C707.739 27.2414 727.008 7.97262 750.777 7.97259H869.034Z" fill="#2E55CD"/>
</svg>
