<?xml version="1.0" encoding="UTF-8"?>
<svg id="Camada_2" data-name="Camada 2" xmlns="http://www.w3.org/2000/svg" viewBox="0 0 166.86 171.15">
  <defs>
    <style>
      .cls-1 {
        fill: #2e55cd;
        fill-rule: evenodd;
      }
    </style>
  </defs>
  <g id="Layer_1" data-name="Layer 1">
    <path class="cls-1" d="M114.46,64.71c0-5.62-4.55-10.17-10.17-10.17-5.62,0-10.17,4.55-10.17,10.17s4.55,10.17,10.17,10.17c5.62,0,10.17-4.55,10.17-10.17ZM125.15,64.71c0,11.52-9.34,20.86-20.86,20.86s-20.86-9.34-20.86-20.86c0-8.43,5-15.69,12.2-18.98.04-.01.08-.03.12-.04,2.17-.95,3.55-.95,3.55-.95,0,0-2.28-.75-4.98-3.12-.28-.26-.54-.52-.81-.77-1.8-1.73-3.52-3.47-4.53-4.75-3.51-4.5-5.56-9.34-5.56-15.24,0-11.52,9.34-20.86,20.86-20.86,11.52,0,20.86,9.34,20.86,20.86,0,5.66-2.26,10.8-5.91,14.55-.4.41-1.05.38-1.44-.03l-5.88-6.31c-.39-.42-.36-1.07.02-1.49,1.58-1.79,2.53-4.14,2.53-6.71,0-5.62-4.55-10.17-10.17-10.17s-10.17,4.55-10.17,10.17c0,3.07.95,5.65,3.31,8.67.46.59,1.64,1.83,3.51,3.62,1.78,1.71,3.94,3.7,6.16,5.73,4.33,3.95,9.08,8.19,11.08,10.18.13.13.26.28.38.42,4.07,3.81,6.61,9.22,6.61,15.23Z"/>
    <path class="cls-1" d="M31.03,64.71c0-5.62-4.55-10.17-10.17-10.17-5.62,0-10.17,4.55-10.17,10.17s4.55,10.17,10.17,10.17c5.62,0,10.17-4.55,10.17-10.17ZM41.72,64.71c0,11.52-9.34,20.86-20.86,20.86S0,76.23,0,64.71c0-8.43,5-15.69,12.2-18.98.04-.01.08-.03.12-.04,2.17-.95,3.55-.95,3.55-.95,0,0-2.28-.75-4.98-3.12-.28-.26-.54-.52-.81-.77-1.8-1.73-3.52-3.47-4.53-4.75C2.05,31.59,0,26.76,0,20.86,0,9.34,9.34,0,20.86,0c11.52,0,20.86,9.34,20.86,20.86,0,5.66-2.26,10.8-5.91,14.55-.4.41-1.05.38-1.44-.03l-5.88-6.31c-.39-.42-.36-1.07.02-1.49,1.58-1.79,2.53-4.14,2.53-6.71,0-5.62-4.55-10.17-10.17-10.17s-10.17,4.55-10.17,10.17c0,3.07.95,5.65,3.31,8.67.46.59,1.64,1.83,3.51,3.62,1.78,1.71,3.94,3.7,6.16,5.73,4.33,3.95,9.08,8.19,11.08,10.18.13.13.26.28.38.42,4.07,3.81,6.61,9.22,6.61,15.23Z"/>
    <path class="cls-1" d="M135.83,64.71c0-5.62,4.55-10.17,10.17-10.17,5.62,0,10.17,4.55,10.17,10.17s-4.55,10.17-10.17,10.17c-5.62,0-10.17-4.55-10.17-10.17ZM125.14,64.71c0,11.52,9.34,20.86,20.86,20.86s20.86-9.34,20.86-20.86c0-8.43-5-15.69-12.2-18.98-.04-.01-.08-.03-.12-.04-2.17-.95-3.55-.95-3.55-.95,0,0,2.28-.75,4.98-3.12.28-.26.54-.52.81-.77,1.8-1.73,3.52-3.47,4.53-4.75,3.51-4.5,5.56-9.34,5.56-15.24,0-11.52-9.34-20.86-20.86-20.86-11.52,0-20.86,9.34-20.86,20.86,0,5.66,2.26,10.8,5.91,14.55.4.41,1.05.38,1.44-.03l5.88-6.31c.39-.42.36-1.07-.02-1.49-1.58-1.79-2.53-4.14-2.53-6.71,0-5.62,4.55-10.17,10.17-10.17s10.17,4.55,10.17,10.17c0,3.07-.95,5.65-3.31,8.67-.46.59-1.64,1.83-3.51,3.62-1.78,1.71-3.94,3.7-6.16,5.73-4.33,3.95-9.08,8.19-11.08,10.18-.13.13-.26.28-.38.42-4.07,3.81-6.61,9.22-6.61,15.23Z"/>
    <path class="cls-1" d="M52.4,64.71c0-5.62,4.55-10.17,10.17-10.17,5.62,0,10.17,4.55,10.17,10.17s-4.55,10.17-10.17,10.17c-5.62,0-10.17-4.55-10.17-10.17ZM41.72,64.71c0,11.52,9.34,20.86,20.86,20.86s20.86-9.34,20.86-20.86c0-8.43-5-15.69-12.2-18.98-.04-.01-.08-.03-.12-.04-2.17-.95-3.55-.95-3.55-.95,0,0,2.28-.75,4.98-3.12.28-.26.54-.52.81-.77,1.8-1.73,3.52-3.47,4.53-4.75,3.51-4.5,5.56-9.34,5.56-15.24,0-11.52-9.34-20.86-20.86-20.86-11.52,0-20.86,9.34-20.86,20.86,0,5.66,2.26,10.8,5.91,14.55.4.41,1.05.38,1.44-.03l5.88-6.31c.39-.42.36-1.07-.02-1.49-1.58-1.79-2.53-4.14-2.53-6.71,0-5.62,4.55-10.17,10.17-10.17s10.17,4.55,10.17,10.17c0,3.07-.95,5.65-3.31,8.67-.46.59-1.64,1.83-3.51,3.62-1.78,1.71-3.94,3.7-6.16,5.73-4.33,3.95-9.08,8.19-11.08,10.18-.13.13-.26.28-.38.42-4.07,3.81-6.61,9.22-6.61,15.23Z"/>
    <path class="cls-1" d="M104.29,96.26c-5.62,0-10.17,4.55-10.17,10.17s4.55,10.17,10.17,10.17c5.62,0,10.17-4.55,10.17-10.17s-4.55-10.17-10.17-10.17ZM118.54,121.66c-.12.14-.24.29-.38.42-2,2-6.75,6.23-11.08,10.18-2.22,2.03-4.38,4.02-6.16,5.73-1.86,1.79-3.04,3.03-3.51,3.62-2.35,3.02-3.31,5.6-3.31,8.67,0,5.62,4.55,10.17,10.17,10.17s10.17-4.55,10.17-10.17c0-2.57-.95-4.91-2.53-6.71-.38-.43-.4-1.08-.02-1.49l5.88-6.31c.39-.42,1.04-.44,1.44-.03,3.65,3.75,5.91,8.89,5.91,14.55,0,11.52-9.34,20.86-20.86,20.86-11.52,0-20.86-9.34-20.86-20.86,0-5.9,2.05-10.73,5.56-15.24,1-1.29,2.73-3.03,4.53-4.75.26-.25.53-.51.81-.77,2.7-2.37,4.98-3.12,4.98-3.12,0,0-1.38,0-3.55-.95-.04-.02-.08-.03-.12-.04-7.2-3.29-12.2-10.55-12.2-18.98,0-11.52,9.34-20.86,20.86-20.86s20.86,9.34,20.86,20.86c0,6.01-2.54,11.43-6.61,15.23Z"/>
    <path class="cls-1" d="M20.86,96.26c-5.62,0-10.17,4.55-10.17,10.17s4.55,10.17,10.17,10.17c5.62,0,10.17-4.55,10.17-10.17s-4.55-10.17-10.17-10.17ZM35.11,121.66c-.12.14-.24.29-.38.42-2,2-6.75,6.23-11.08,10.18-2.22,2.03-4.38,4.02-6.16,5.73-1.86,1.79-3.04,3.03-3.51,3.62-2.35,3.02-3.31,5.6-3.31,8.67,0,5.62,4.55,10.17,10.17,10.17s10.17-4.55,10.17-10.17c0-2.57-.95-4.91-2.53-6.71-.38-.43-.4-1.08-.02-1.49l5.88-6.31c.39-.42,1.04-.44,1.44-.03,3.65,3.75,5.91,8.89,5.91,14.55,0,11.52-9.34,20.86-20.86,20.86-11.52,0-20.86-9.34-20.86-20.86,0-5.9,2.05-10.73,5.56-15.24,1-1.29,2.73-3.03,4.53-4.75.26-.25.53-.51.81-.77,2.7-2.37,4.98-3.12,4.98-3.12,0,0-1.38,0-3.55-.95-.04-.02-.08-.03-.12-.04-7.2-3.29-12.2-10.55-12.2-18.98,0-11.52,9.34-20.86,20.86-20.86s20.86,9.34,20.86,20.86c0,6.01-2.54,11.43-6.61,15.23Z"/>
    <path class="cls-1" d="M146,96.26c5.62,0,10.17,4.55,10.17,10.17s-4.55,10.17-10.17,10.17c-5.62,0-10.17-4.55-10.17-10.17s4.55-10.17,10.17-10.17ZM131.75,121.66c.12.14.24.29.38.42,2,2,6.75,6.23,11.08,10.18,2.22,2.03,4.38,4.02,6.16,5.73,1.86,1.79,3.04,3.03,3.51,3.62,2.35,3.02,3.31,5.6,3.31,8.67,0,5.62-4.55,10.17-10.17,10.17s-10.17-4.55-10.17-10.17c0-2.57.95-4.91,2.53-6.71.38-.43.4-1.08.02-1.49l-5.88-6.31c-.39-.42-1.04-.44-1.44-.03-3.65,3.75-5.91,8.89-5.91,14.55,0,11.52,9.34,20.86,20.86,20.86,11.52,0,20.86-9.34,20.86-20.86,0-5.9-2.05-10.73-5.56-15.24-1-1.29-2.73-3.03-4.53-4.75-.26-.25-.53-.51-.81-.77-2.7-2.37-4.98-3.12-4.98-3.12,0,0,1.38,0,3.55-.95.04-.02.08-.03.12-.04,7.2-3.29,12.2-10.55,12.2-18.98,0-11.52-9.34-20.86-20.86-20.86s-20.86,9.34-20.86,20.86c0,6.01,2.54,11.43,6.61,15.23Z"/>
    <path class="cls-1" d="M62.58,96.26c5.62,0,10.17,4.55,10.17,10.17s-4.55,10.17-10.17,10.17c-5.62,0-10.17-4.55-10.17-10.17s4.55-10.17,10.17-10.17ZM48.33,121.66c.12.14.24.29.38.42,2,2,6.75,6.23,11.08,10.18,2.22,2.03,4.38,4.02,6.16,5.73,1.86,1.79,3.04,3.03,3.51,3.62,2.35,3.02,3.31,5.6,3.31,8.67,0,5.62-4.55,10.17-10.17,10.17s-10.17-4.55-10.17-10.17c0-2.57.95-4.91,2.53-6.71.38-.43.4-1.08.02-1.49l-5.88-6.31c-.39-.42-1.04-.44-1.44-.03-3.65,3.75-5.91,8.89-5.91,14.55,0,11.52,9.34,20.86,20.86,20.86,11.52,0,20.86-9.34,20.86-20.86,0-5.9-2.05-10.73-5.56-15.24-1-1.29-2.73-3.03-4.53-4.75-.26-.25-.53-.51-.81-.77-2.7-2.37-4.98-3.12-4.98-3.12,0,0,1.38,0,3.55-.95.04-.02.08-.03.12-.04,7.2-3.29,12.2-10.55,12.2-18.98,0-11.52-9.34-20.86-20.86-20.86s-20.86,9.34-20.86,20.86c0,6.01,2.54,11.43,6.61,15.23Z"/>
  </g>
</svg>