<svg width="1692" height="337" viewBox="0 0 1692 337" fill="none" xmlns="http://www.w3.org/2000/svg">
<path fill-rule="evenodd" clip-rule="evenodd" d="M1029.41 0.308261C1031.88 0.337415 1035.15 0.355311 1039.29 0.355311C1091.73 0.355416 1111.2 20.9617 1120.9 31.398V15.6824C1120.9 11.0948 1124.62 7.37554 1129.21 7.37554H1198.67C1203.26 7.37559 1206.98 11.0948 1206.98 15.6824V319.782C1206.98 324.37 1203.26 328.089 1198.67 328.089H1129.21C1124.62 328.089 1120.9 324.37 1120.9 319.782V304.693C1113.37 312.948 1099.74 327.303 1069.44 333.298C1060.62 334.914 1051.56 335.843 1042.31 336.023C1041.21 336.042 1040.1 336.053 1038.97 336.053C1038.73 336.053 1038.5 336.053 1038.27 336.054C945.804 335.673 870.965 260.6 870.964 168.047C870.965 78.4703 941.069 5.26736 1029.41 0.308261ZM1038.97 86.1159C993.723 86.1161 957.041 122.798 957.041 168.047C957.041 213.297 993.723 249.98 1038.97 249.98C1084.22 249.98 1120.9 213.297 1120.9 168.047C1120.9 122.798 1084.22 86.1159 1038.97 86.1159Z" fill="#2E55CD"/>
<path fill-rule="evenodd" clip-rule="evenodd" d="M521.241 0C614.029 0 689.25 75.2196 689.25 168.008C689.25 260.796 614.029 336.016 521.241 336.016C453.327 336.016 394.827 295.718 368.341 237.731C368.252 237.4 368.138 237.071 367.995 236.746C360.334 219.247 360.334 208.164 360.334 208.164C360.334 208.164 354.33 226.566 335.222 248.281C333.117 250.496 331.048 252.665 329.018 254.774C315.099 269.236 301.096 283.152 290.733 291.225C254.464 319.477 215.541 336.016 168.008 336.016C75.2196 336.016 0 260.796 0 168.008C0.000143856 75.2197 75.2197 0.000133066 168.008 0C213.587 0 254.973 18.1988 285.199 47.6222C288.487 50.8223 288.285 56.0952 284.927 59.2209L234.081 106.547C230.723 109.673 225.492 109.448 222.046 106.42C207.593 93.7181 188.718 86.0761 168.008 86.0761C122.758 86.0762 86.0762 122.758 86.0761 168.008C86.0761 213.257 122.758 249.94 168.008 249.94C192.734 249.94 213.536 242.25 237.838 223.319C242.618 219.596 252.566 210.081 267 195.084C280.763 180.783 296.827 163.387 313.147 145.497C344.95 110.639 379.095 72.3532 395.167 56.2811C396.253 55.1949 397.382 54.1784 398.55 53.2326C429.208 20.4734 472.834 5.47659e-05 521.241 0ZM521.241 86.0761C475.992 86.0762 439.31 122.758 439.31 168.008C439.31 213.257 475.992 249.94 521.241 249.94C566.491 249.94 603.173 213.257 603.173 168.008C603.173 122.758 566.491 86.0761 521.241 86.0761Z" fill="#2E55CD"/>
<path d="M869.034 7.97259C873.621 7.97259 877.341 11.6917 877.341 16.2794V85.7419C877.341 90.3296 873.621 94.0487 869.034 94.0487H809.638C793.68 93.8581 789.978 88.4676 789.978 88.4676C789.978 88.4676 793.815 94.0548 793.815 106.304V320.379C793.815 324.967 790.096 328.686 785.508 328.686H716.046C711.458 328.686 707.739 324.967 707.739 320.379V51.0106C707.739 27.2414 727.008 7.97262 750.777 7.97259H869.034Z" fill="#2E55CD"/>
<path d="M1248.22 105.531V9.24625H1262.37C1267.74 9.24625 1272.22 10.4252 1275.8 12.7832C1279.42 15.1412 1282.13 18.4817 1283.92 22.8047C1285.71 27.1277 1286.6 32.2149 1286.6 38.0662C1286.6 43.9176 1285.66 48.9611 1283.79 53.1967C1281.91 57.4324 1279.16 60.7511 1275.53 63.1527C1271.95 65.5107 1267.56 66.7989 1262.37 67.0173V105.531H1248.22ZM1262.37 52.6072C1264.86 52.6072 1266.82 52.1269 1268.26 51.1662C1269.7 50.1619 1270.73 48.5899 1271.34 46.4502C1272 44.3106 1272.32 41.5596 1272.32 38.1973C1272.32 34.7912 1272 32.0184 1271.34 29.8787C1270.73 27.7391 1269.68 26.1671 1268.2 25.1627C1266.76 24.1584 1264.81 23.6562 1262.37 23.6562V52.6072ZM1291.33 105.531L1305.87 9.24625H1323.16L1337.7 105.531H1323.95L1321.33 85.8812H1307.7L1305.08 105.531H1291.33ZM1309.67 70.9473H1319.36L1315.3 38.5902L1314.91 33.4812H1314.12L1313.73 38.5902L1309.67 70.9473ZM1345.19 105.531V9.24625H1359.6C1364.14 9.24625 1367.99 9.98858 1371.13 11.4732C1374.27 12.9579 1376.81 15.4906 1378.73 19.0712C1380.65 22.6519 1382.02 27.5644 1382.85 33.8087C1383.73 40.0531 1384.16 47.9349 1384.16 57.4542C1384.16 67.0172 1383.73 74.9209 1382.85 81.1652C1382.02 87.3659 1380.65 92.2566 1378.73 95.8372C1376.81 99.3742 1374.27 101.885 1371.13 103.37C1367.99 104.811 1364.14 105.531 1359.6 105.531H1345.19ZM1359.34 91.3832C1362.83 91.3832 1365.3 90.0077 1366.74 87.2567C1368.18 84.5057 1369.06 80.5757 1369.36 75.4667C1369.67 70.3577 1369.82 64.2881 1369.82 57.2577C1369.82 50.1401 1369.67 44.0704 1369.36 39.0487C1369.06 33.9834 1368.16 30.1189 1366.68 27.4552C1365.23 24.7479 1362.79 23.3942 1359.34 23.3942V91.3832ZM1390.98 105.531L1405.53 9.24625H1422.82L1437.36 105.531H1423.6L1420.98 85.8812H1407.36L1404.74 105.531H1390.98ZM1409.32 70.9473H1419.02L1414.96 38.5902L1414.56 33.4812H1413.78L1413.39 38.5902L1409.32 70.9473ZM1444.85 105.531V9.24625H1459C1467.47 9.24625 1473.71 11.6042 1477.73 16.3202C1481.75 20.9926 1483.76 27.8919 1483.76 37.0182C1483.76 42.4329 1482.79 47.1271 1480.87 51.1007C1479 55.0307 1476.7 57.9127 1474 59.7467L1483.62 105.531H1469.48L1461.49 64.9212H1459V105.531H1444.85ZM1459 51.8212C1461.62 51.8212 1463.69 51.2536 1465.22 50.1182C1466.75 48.9392 1467.84 47.2799 1468.49 45.1402C1469.15 43.0006 1469.48 40.4679 1469.48 37.5422C1469.48 32.9572 1468.71 29.4421 1467.18 26.9967C1465.7 24.5077 1462.97 23.2632 1459 23.2632V51.8212ZM1491.67 105.531V9.24625H1505.82V105.531H1491.67ZM1513.41 105.531L1527.95 9.24625H1545.25L1559.79 105.531H1546.03L1543.41 85.8812H1529.79L1527.17 105.531H1513.41ZM1531.75 70.9473H1541.45L1537.39 38.5902L1536.99 33.4812H1536.21L1535.81 38.5902L1531.75 70.9473ZM1248.22 216.531V120.246H1262.37C1267.74 120.246 1272.22 121.425 1275.8 123.783C1279.42 126.141 1282.13 129.482 1283.92 133.805C1285.71 138.128 1286.6 143.215 1286.6 149.066C1286.6 154.918 1285.66 159.961 1283.79 164.197C1281.91 168.432 1279.16 171.751 1275.53 174.153C1271.95 176.511 1267.56 177.799 1262.37 178.017V216.531H1248.22ZM1262.37 163.607C1264.86 163.607 1266.82 163.127 1268.26 162.166C1269.7 161.162 1270.73 159.59 1271.34 157.45C1272 155.311 1272.32 152.56 1272.32 149.197C1272.32 145.791 1272 143.018 1271.34 140.879C1270.73 138.739 1269.68 137.167 1268.2 136.163C1266.76 135.158 1264.81 134.656 1262.37 134.656V163.607ZM1312.48 217.579C1308.55 217.579 1305.17 216.662 1302.33 214.828C1299.54 212.994 1297.38 210.505 1295.85 207.361C1294.36 204.217 1293.62 200.68 1293.62 196.75V140.027C1293.62 136.054 1294.36 132.517 1295.85 129.416C1297.38 126.272 1299.54 123.783 1302.33 121.949C1305.17 120.115 1308.55 119.198 1312.48 119.198C1316.41 119.198 1319.78 120.115 1322.57 121.949C1325.41 123.783 1327.57 126.272 1329.06 129.416C1330.58 132.56 1331.35 136.097 1331.35 140.027V196.75C1331.35 200.68 1330.58 204.217 1329.06 207.361C1327.57 210.505 1325.41 212.994 1322.57 214.828C1319.78 216.662 1316.41 217.579 1312.48 217.579ZM1312.48 203.824C1314.23 203.824 1315.45 203.104 1316.15 201.663C1316.85 200.178 1317.2 198.541 1317.2 196.75V140.027C1317.2 138.237 1316.83 136.621 1316.09 135.18C1315.34 133.696 1314.14 132.953 1312.48 132.953C1310.87 132.953 1309.67 133.696 1308.88 135.18C1308.14 136.621 1307.77 138.237 1307.77 140.027V196.75C1307.77 198.541 1308.14 200.178 1308.88 201.663C1309.62 203.104 1310.82 203.824 1312.48 203.824ZM1341.23 216.531V120.246H1355.37C1363.84 120.246 1370.09 122.604 1374.11 127.32C1378.12 131.993 1380.13 138.892 1380.13 148.018C1380.13 153.433 1379.17 158.127 1377.25 162.101C1375.37 166.031 1373.08 168.913 1370.37 170.747L1380 216.531H1365.85L1357.86 175.921H1355.37V216.531H1341.23ZM1355.37 162.821C1357.99 162.821 1360.07 162.254 1361.6 161.118C1363.12 159.939 1364.22 158.28 1364.87 156.14C1365.53 154.001 1365.85 151.468 1365.85 148.542C1365.85 143.957 1365.09 140.442 1363.56 137.997C1362.08 135.508 1359.35 134.263 1355.37 134.263V162.821ZM1245.27 327.531L1259.81 231.246H1277.11L1291.65 327.531H1277.89L1275.27 307.881H1261.65L1259.03 327.531H1245.27ZM1263.61 292.947H1273.31L1269.25 260.59L1268.85 255.481H1268.07L1267.67 260.59L1263.61 292.947ZM1314.89 328.579C1311 328.579 1307.77 327.946 1305.19 326.68C1302.62 325.37 1300.59 323.492 1299.1 321.047C1297.62 318.601 1296.55 315.654 1295.89 312.204C1295.28 308.755 1294.98 304.868 1294.98 300.545L1308.86 299.235C1308.86 301.331 1308.93 303.362 1309.06 305.327C1309.23 307.248 1309.52 308.995 1309.91 310.567C1310.35 312.095 1310.96 313.318 1311.74 314.235C1312.57 315.152 1313.62 315.61 1314.89 315.61C1316.98 315.61 1318.47 314.65 1319.34 312.728C1320.21 310.763 1320.65 308.405 1320.65 305.654C1320.65 302.903 1319.93 300.043 1318.49 297.074C1317.05 294.104 1315.32 291.288 1313.32 288.624C1309.91 284.083 1306.92 279.869 1304.34 275.983C1301.81 272.096 1299.82 268.276 1298.38 264.52C1296.98 260.765 1296.29 256.835 1296.29 252.73C1296.29 249.499 1296.7 246.53 1297.53 243.822C1298.36 241.071 1299.56 238.691 1301.13 236.683C1302.75 234.63 1304.69 233.037 1306.96 231.901C1309.23 230.766 1311.83 230.198 1314.76 230.198C1318.38 230.198 1321.44 230.81 1323.93 232.032C1326.46 233.255 1328.49 235.002 1330.02 237.272C1331.59 239.543 1332.73 242.25 1333.42 245.394C1334.17 248.495 1334.54 251.944 1334.54 255.743L1320.65 257.053C1320.65 255.438 1320.56 253.822 1320.39 252.206C1320.26 250.547 1320 249.04 1319.6 247.687C1319.21 246.333 1318.64 245.241 1317.9 244.412C1317.16 243.582 1316.2 243.167 1315.02 243.167C1313.18 243.167 1311.92 243.953 1311.22 245.525C1310.52 247.054 1310.17 249.237 1310.17 252.075C1310.17 255.743 1311.15 259.28 1313.12 262.686C1315.08 266.092 1317.73 270.066 1321.04 274.607C1325.02 279.978 1328.25 284.913 1330.74 289.41C1333.27 293.908 1334.54 298.886 1334.54 304.344C1334.54 307.794 1334.17 311.003 1333.42 313.973C1332.68 316.898 1331.5 319.453 1329.89 321.636C1328.31 323.82 1326.28 325.523 1323.8 326.745C1321.35 327.968 1318.38 328.579 1314.89 328.579ZM1359.15 328.579C1355.26 328.579 1352.03 327.946 1349.46 326.68C1346.88 325.37 1344.85 323.492 1343.37 321.047C1341.88 318.601 1340.81 315.654 1340.16 312.204C1339.54 308.755 1339.24 304.868 1339.24 300.545L1353.12 299.235C1353.12 301.331 1353.19 303.362 1353.32 305.327C1353.5 307.248 1353.78 308.995 1354.17 310.567C1354.61 312.095 1355.22 313.318 1356.01 314.235C1356.84 315.152 1357.88 315.61 1359.15 315.61C1361.25 315.61 1362.73 314.65 1363.6 312.728C1364.48 310.763 1364.91 308.405 1364.91 305.654C1364.91 302.903 1364.19 300.043 1362.75 297.074C1361.31 294.104 1359.59 291.288 1357.58 288.624C1354.17 284.083 1351.18 279.869 1348.61 275.983C1346.07 272.096 1344.09 268.276 1342.64 264.52C1341.25 260.765 1340.55 256.835 1340.55 252.73C1340.55 249.499 1340.96 246.53 1341.79 243.822C1342.62 241.071 1343.82 238.691 1345.4 236.683C1347.01 234.63 1348.95 233.037 1351.23 231.901C1353.5 230.766 1356.09 230.198 1359.02 230.198C1362.64 230.198 1365.7 230.81 1368.19 232.032C1370.72 233.255 1372.75 235.002 1374.28 237.272C1375.85 239.543 1376.99 242.25 1377.69 245.394C1378.43 248.495 1378.8 251.944 1378.8 255.743L1364.91 257.053C1364.91 255.438 1364.83 253.822 1364.65 252.206C1364.52 250.547 1364.26 249.04 1363.87 247.687C1363.47 246.333 1362.91 245.241 1362.16 244.412C1361.42 243.582 1360.46 243.167 1359.28 243.167C1357.45 243.167 1356.18 243.953 1355.48 245.525C1354.78 247.054 1354.43 249.237 1354.43 252.075C1354.43 255.743 1355.42 259.28 1357.38 262.686C1359.35 266.092 1361.99 270.066 1365.31 274.607C1369.28 279.978 1372.51 284.913 1375 289.41C1377.53 293.908 1378.8 298.886 1378.8 304.344C1378.8 307.794 1378.43 311.003 1377.69 313.973C1376.95 316.898 1375.77 319.453 1374.15 321.636C1372.58 323.82 1370.55 325.523 1368.06 326.745C1365.61 327.968 1362.64 328.579 1359.15 328.579ZM1386.38 327.531V231.246H1400.53V327.531H1386.38ZM1411.07 327.531V231.246H1424.31L1437.41 281.419L1438.58 285.873H1439.37V231.246H1452.34V327.531H1440.42L1426.01 277.358L1424.83 272.904H1424.04V327.531H1411.07ZM1459.81 327.531L1474.35 231.246H1491.64L1506.19 327.531H1492.43L1489.81 307.881H1476.19L1473.57 327.531H1459.81ZM1478.15 292.947H1487.85L1483.78 260.59L1483.39 255.481H1482.61L1482.21 260.59L1478.15 292.947ZM1516.58 327.531V245.787H1503.22V231.246H1544.09V245.787H1530.73V327.531H1516.58ZM1569.51 328.579C1565.54 328.579 1562.13 327.662 1559.29 325.828C1556.5 323.994 1554.36 321.505 1552.87 318.361C1551.39 315.217 1550.65 311.68 1550.65 307.75V231.246H1564.79V307.75C1564.79 309.628 1565.17 311.287 1565.91 312.728C1566.65 314.126 1567.85 314.824 1569.51 314.824C1571.26 314.824 1572.48 314.126 1573.18 312.728C1573.88 311.287 1574.23 309.628 1574.23 307.75V231.246H1588.37V307.75C1588.37 311.68 1587.61 315.217 1586.08 318.361C1584.6 321.505 1582.44 323.994 1579.6 325.828C1576.8 327.662 1573.44 328.579 1569.51 328.579ZM1598.88 327.531V231.246H1613.02C1621.5 231.246 1627.74 233.604 1631.76 238.32C1635.77 242.993 1637.78 249.892 1637.78 259.018C1637.78 264.433 1636.82 269.127 1634.9 273.101C1633.02 277.031 1630.73 279.913 1628.02 281.747L1637.65 327.531H1623.5L1615.51 286.921H1613.02V327.531H1598.88ZM1613.02 273.821C1615.64 273.821 1617.72 273.254 1619.25 272.118C1620.77 270.939 1621.87 269.28 1622.52 267.14C1623.18 265.001 1623.5 262.468 1623.5 259.542C1623.5 254.957 1622.74 251.442 1621.21 248.997C1619.73 246.508 1617 245.263 1613.02 245.263V273.821ZM1642.75 327.531L1657.29 231.246H1674.58L1689.12 327.531H1675.37L1672.75 307.881H1659.13L1656.51 327.531H1642.75ZM1661.09 292.947H1670.78L1666.72 260.59L1666.33 255.481H1665.54L1665.15 260.59L1661.09 292.947Z" fill="#2E55CD"/>
</svg>
