<svg width="48" height="23" viewBox="0 0 48 23" fill="none" xmlns="http://www.w3.org/2000/svg">
<path fill-rule="evenodd" clip-rule="evenodd" d="M36.2997 0C42.7616 0 48 5.14871 48 11.5C48 17.8512 42.7616 23 36.2997 23C31.5701 23 27.4961 20.2416 25.6516 16.2724C25.6454 16.2498 25.6375 16.2273 25.6275 16.205C25.094 15.0073 25.094 14.2486 25.094 14.2486C25.094 14.2486 24.6759 15.5082 23.3452 16.9946C23.1986 17.1462 23.0545 17.2947 22.9131 17.4391C21.9438 18.429 20.9686 19.3815 20.2469 19.9341C17.7211 21.8679 15.0105 23 11.7002 23C5.23836 23 0 17.8512 0 11.5C1.00183e-05 5.14872 5.23837 9.10827e-06 11.7002 0C14.8744 0 17.7566 1.24569 19.8616 3.2597C20.0905 3.47874 20.0764 3.83967 19.8426 4.05362L16.3016 7.29305C16.0678 7.507 15.7035 7.49162 15.4635 7.28433C14.457 6.41492 13.1425 5.89183 11.7002 5.89183C8.549 5.89184 5.99443 8.40269 5.99442 11.5C5.99442 14.5973 8.54899 17.1082 11.7002 17.1082C13.4222 17.1082 14.8708 16.5818 16.5633 15.286C16.8961 15.0312 17.5889 14.3798 18.5941 13.3533C19.5526 12.3745 20.6713 11.1837 21.8079 9.95916C24.0226 7.57311 26.4005 4.95251 27.5198 3.85239C27.5954 3.77804 27.6741 3.70846 27.7554 3.64372C29.8905 1.40138 32.9286 3.74867e-06 36.2997 0ZM36.2997 5.89183C33.1485 5.89184 30.5939 8.40269 30.5939 11.5C30.5939 14.5973 33.1485 17.1082 36.2997 17.1082C39.451 17.1082 42.0055 14.5973 42.0055 11.5C42.0055 8.40268 39.451 5.89183 36.2997 5.89183Z" fill="#2E55CD"/>
</svg>
