<svg width="35" height="36" viewBox="0 0 35 36" fill="none" xmlns="http://www.w3.org/2000/svg">
<path fill-rule="evenodd" clip-rule="evenodd" d="M17.1619 26.6222C17.1619 31.3613 13.3201 35.2031 8.58097 35.2031C3.84186 35.2031 1.35447e-05 31.3613 1.37519e-05 26.6222C1.78268e-05 23.1535 2.05821 20.1656 5.01991 18.8129C5.0368 18.8083 5.05358 18.8025 5.07021 18.7952C5.96393 18.4039 6.53003 18.4039 6.53003 18.4039C6.53003 18.4039 5.59016 18.0973 4.48104 17.1213C4.36791 17.0138 4.25716 16.9081 4.14942 16.8044C3.41078 16.0935 2.70001 15.3784 2.2877 14.849C0.844758 12.9966 1.44344e-05 11.0087 1.45405e-05 8.58092C2.15422e-05 3.84181 3.84186 -5.82237e-07 8.58098 -3.75084e-07C13.3201 7.17945e-06 17.1619 3.84181 17.1619 8.58092C17.1619 10.9088 16.2324 13.0226 14.7296 14.5664C14.5662 14.7343 14.2969 14.724 14.1372 14.5525L11.7201 11.9556C11.5604 11.7841 11.5719 11.5169 11.7266 11.3409C12.3753 10.6027 12.7656 9.63868 12.7656 8.58092C12.7656 6.26982 10.8921 4.39631 8.58098 4.3963C6.26987 4.3963 4.39632 6.26982 4.39631 8.58092C4.39631 9.84382 4.78908 10.9062 5.75595 12.1475C5.9461 12.3916 6.43212 12.8997 7.19809 13.6369C7.92846 14.3399 8.81699 15.1603 9.73068 15.9939C11.5111 17.6182 13.4665 19.3621 14.2874 20.183C14.3428 20.2384 14.3948 20.2961 14.4431 20.3558C16.1162 21.9216 17.1619 24.1498 17.1619 26.6222ZM12.7656 26.6222C12.7656 24.3111 10.8921 22.4375 8.58097 22.4375C6.26987 22.4375 4.39632 24.3111 4.39631 26.6222C4.39631 28.9333 6.26987 30.8068 8.58097 30.8068C10.8921 30.8068 12.7656 28.9333 12.7656 26.6222Z" fill="#2E55CD"/>
<path fill-rule="evenodd" clip-rule="evenodd" d="M17.1619 26.6222C17.1619 31.3613 21.0037 35.2031 25.7428 35.2031C30.4819 35.2031 34.3238 31.3613 34.3238 26.6222C34.3238 23.1535 32.2656 20.1656 29.3039 18.8129C29.287 18.8083 29.2702 18.8025 29.2536 18.7952C28.3599 18.4039 27.7938 18.4039 27.7938 18.4039C27.7938 18.4039 28.7336 18.0973 29.8427 17.1213C29.9559 17.0138 30.0666 16.9081 30.1744 16.8044C30.913 16.0935 31.6238 15.3784 32.0361 14.849C33.479 12.9966 34.3238 11.0087 34.3238 8.58092C34.3238 3.84181 30.4819 5.82237e-07 25.7428 3.75084e-07C21.0037 7.51531e-06 17.1619 3.84181 17.1619 8.58092C17.1619 10.9088 18.0914 13.0226 19.5942 14.5664C19.7576 14.7343 20.0269 14.724 20.1866 14.5525L22.6037 11.9556C22.7634 11.7841 22.7519 11.5169 22.5972 11.3409C21.9485 10.6027 21.5582 9.63868 21.5582 8.58092C21.5582 6.26982 23.4317 4.39631 25.7428 4.3963C28.0539 4.3963 29.9275 6.26982 29.9275 8.58092C29.9275 9.84382 29.5347 10.9062 28.5678 12.1475C28.3777 12.3916 27.8917 12.8997 27.1257 13.6369C26.3953 14.3399 25.5068 15.1603 24.5931 15.9939C22.8127 17.6182 20.8573 19.3621 20.0364 20.183C19.9809 20.2384 19.929 20.2961 19.8807 20.3558C18.2076 21.9216 17.1619 24.1498 17.1619 26.6222ZM21.5582 26.6222C21.5582 24.3111 23.4317 22.4375 25.7428 22.4375C28.0539 22.4375 29.9275 24.3111 29.9275 26.6222C29.9275 28.9333 28.0539 30.8068 25.7428 30.8068C23.4317 30.8068 21.5582 28.9333 21.5582 26.6222Z" fill="#2E55CD"/>
</svg>
